<svg id="Layer_2" data-name="Layer 2" xmlns="http://www.w3.org/2000/svg" viewBox="0 0 1366 284.41"><defs><style>.cls-1{fill:#e6f4f8;}.cls-2{fill:none;stroke:#e6f4f8;stroke-miterlimit:10;}</style></defs><title>Kigali city scape</title><path class="cls-1" d="M1158.82,473.93h-20.49s0-36.43-18.21-56.92-43.26-29.6-43.26-29.6l-2.28-2.28V371.48h-2.28v13.66l-2.28,2.28s-34.15,11.38-47.81,34.15c-12.62,21-11.38,52.36-11.38,52.36H997.18v-25s-9.11-9.11-11.38-9.11S979,437.5,979,437.5v-4.55h2.28v-2.28s-2.28-4.55-4.55-4.55-4.55-2.28-6.83,0a7.05,7.05,0,0,0-2.28,4.55v4.55h4.55v4.55L963,432.95V414.74s-4.55,0-4.55-2.28v-4.55H956.2s2.28,4.55,0,6.83l-4.55,4.55v4.55h-4.55V417a7.05,7.05,0,0,1-4.55-2.28c-2.28-2.28-4.55-4.55-6.83-4.55a2.23,2.23,0,0,0-2.28,2.28s0,4.55-2.28,2.28l-4.55-4.55c-2.28-2.28-2.28-6.83-2.28-6.83h-4.55v9.11h-6.83v2.28h4.55s-4.55,0,0,2.28,4.55,4.55,4.55,4.55,0-2.28-2.28,0-4.55,4.55-4.55,6.83,2.28,6.83,2.28,6.83v4.55h-4.55v6.83h-6.83v27.32H894.73V460.27h-4.55V387.42h-6.83v-2.28h-4.55v2.28h-2.28v-2.28h-9.11v2.28H853.75v-4.55H831l-9.11-4.55H803.66l-6.83,4.55h-4.55v-4.55h-41v6.83h2.28V398.8h2.28v54.64H751.3v20.49H739.92V458h-4.55V355.54H724v4.55h-9.11l-11.38-11.38v-9.11h2.28v-4.55h-4.55V323.67h-2.28v11.38h-4.55v4.55h2.28v9.11L685.28,360.1h-9.11v-4.55H664.79V458h-4.55v15.94H653.4V273.58h-4.55v25l-4.55,6.83-25,13.66H614.7V305.46h-6.83s2.28-2.28,0-2.28H589.66v2.28h-6.83v13.66h4.55V473.93H573.72V419.29h4.55v-6.83h-4.55v-9.11h6.83v-6.83l-6.83-9.11v-2.28h-6.83v2.28L551,394.25v4.55H530.46l-6.83-9.11h-2.28l-6.83,9.11H496.31L491.76,392h-4.55l-6.83,6.83h-4.55v6.83h2.28v68.3H469V455.72h-9.11v-29.6s-11.38-13.66-50.09-13.66H339.22s-20.49,2.28-27.32,4.55S296,428.4,296,428.4v25h-6.83v20.49H0v20.49H1366V473.93Z" transform="translate(0 -210.01)"/><rect class="cls-1" x="1051.82" y="181.96" width="43.26" height="2.28"/><rect class="cls-1" x="1038.16" y="191.07" width="70.58" height="2.28"/><rect class="cls-1" x="1026.78" y="200.18" width="93.34" height="2.28"/><rect class="cls-1" x="1019.95" y="209.28" width="107" height="2.28"/><rect class="cls-1" x="1013.12" y="220.67" width="120.66" height="2.28"/><rect class="cls-1" x="1010.84" y="229.77" width="125.22" height="2.28"/><rect class="cls-1" x="1008.56" y="238.88" width="132.05" height="2.28"/><rect class="cls-1" x="1006.29" y="247.99" width="134.32" height="2.28"/><path class="cls-1" d="M446.61,297.86h2.88a5.44,5.44,0,0,1,5.42-6.1h2.5a10.38,10.38,0,0,1,19.36,0h3a5.46,5.46,0,0,1,5.46,5.46,5.56,5.56,0,0,1,0,.64h1.17a5.46,5.46,0,0,1,0,10.92H446.61a5.46,5.46,0,1,1,0-10.92" transform="translate(0 -210.01)"/><path class="cls-2" d="M819,240.22v-.51h-6.61v.51l.51.06a13,13,0,0,0-12.93-14.55h-5.73v.51l.48-.18a24.3,24.3,0,0,0-45.34,0l.48.18v-.51H743a13,13,0,0,0-13,13,13.6,13.6,0,0,0,.1,1.52l.51-.06v-.51h-2.69a13,13,0,1,0,0,26.06H819a13,13,0,0,0,0-26.06v1a12,12,0,0,1,0,24H727.92a12,12,0,0,1,0-24h3.26l-.06-.57a12.25,12.25,0,0,1-.09-1.4,12,12,0,0,1,12-12h7.14l.13-.33a23.28,23.28,0,0,1,43.43,0l.13.33h6.08a12,12,0,0,1,12,12,11.76,11.76,0,0,1-.09,1.4l-.07.57H819Z" transform="translate(0 -210.01)"/><path class="cls-1" d="M732.61,265.86h2.88a5.44,5.44,0,0,1,5.42-6.1h2.5a10.38,10.38,0,0,1,19.36,0h3a5.46,5.46,0,0,1,5.46,5.46,5.56,5.56,0,0,1,0,.64h1.17a5.46,5.46,0,0,1,0,10.92H732.61a5.46,5.46,0,1,1,0-10.92" transform="translate(0 -210.01)"/><path class="cls-1" d="M1195.34,365.51h5a9.35,9.35,0,0,1,9.32-10.48h4.3a17.84,17.84,0,0,1,33.28,0h5.09a9.39,9.39,0,0,1,9.39,9.39,9.55,9.55,0,0,1-.07,1.09h2a9.39,9.39,0,0,1,0,18.77h-68.27a9.39,9.39,0,1,1,0-18.77" transform="translate(0 -210.01)"/></svg>